<mxfile host="Electron" agent="Mozilla/5.0 (Windows NT 10.0; Win64; x64) AppleWebKit/537.36 (KHTML, like Gecko) draw.io/27.0.9 Chrome/134.0.6998.205 Electron/35.4.0 Safari/537.36" version="27.0.9">
  <diagram name="AWS Serverless ETL Pipeline" id="_ED426dgf5BQ_GMonB1E">
    <mxGraphModel dx="1481" dy="815" grid="1" gridSize="10" guides="1" tooltips="1" connect="1" arrows="1" fold="1" page="1" pageScale="1" pageWidth="1100" pageHeight="850" math="0" shadow="0">
      <root>
        <mxCell id="0" />
        <mxCell id="1" parent="0" />
        <mxCell id="31lsvgTI_3Ia9t0z7AM7-1" value="AWS Serverless ETL Pipeline" style="text;html=1;strokeColor=none;fillColor=none;align=center;verticalAlign=middle;whiteSpace=wrap;rounded=0;fontSize=32;fontStyle=1;fontColor=#232F3E;" vertex="1" parent="1">
          <mxGeometry x="400" y="40" width="600" height="50" as="geometry" />
        </mxCell>
        <mxCell id="31lsvgTI_3Ia9t0z7AM7-2" value="Complete Event-Driven Data Pipeline" style="text;html=1;strokeColor=none;fillColor=none;align=center;verticalAlign=middle;whiteSpace=wrap;rounded=0;fontSize=18;fontColor=#5A6C7D;" vertex="1" parent="1">
          <mxGeometry x="400" y="95" width="600" height="30" as="geometry" />
        </mxCell>
        <mxCell id="31lsvgTI_3Ia9t0z7AM7-3" value="Data Lake" style="swimlane;whiteSpace=wrap;html=1;fontSize=20;fontStyle=1;fillColor=#E8F4F8;strokeColor=#0E4B8C;strokeWidth=3;rounded=1;arcSize=5;fontColor=#0E4B8C;startSize=50;" vertex="1" parent="1">
          <mxGeometry x="80" y="160" width="1240" height="600" as="geometry" />
        </mxCell>
        <mxCell id="31lsvgTI_3Ia9t0z7AM7-4" value="" style="rounded=1;whiteSpace=wrap;html=1;fillColor=#FF9900;strokeColor=#CC7A00;strokeWidth=3;shadow=1;fontSize=14;arcSize=10;" vertex="1" parent="31lsvgTI_3Ia9t0z7AM7-3">
          <mxGeometry x="40" y="100" width="200" height="200" as="geometry" />
        </mxCell>
        <mxCell id="31lsvgTI_3Ia9t0z7AM7-5" value="🪣" style="text;html=1;strokeColor=none;fillColor=none;align=center;verticalAlign=middle;whiteSpace=wrap;rounded=0;fontSize=72;" vertex="1" parent="31lsvgTI_3Ia9t0z7AM7-3">
          <mxGeometry x="85" y="120" width="110" height="80" as="geometry" />
        </mxCell>
        <mxCell id="31lsvgTI_3Ia9t0z7AM7-6" value="Amazon S3" style="text;html=1;strokeColor=none;fillColor=none;align=center;verticalAlign=middle;whiteSpace=wrap;rounded=0;fontSize=16;fontStyle=1;fontColor=#FFFFFF;" vertex="1" parent="31lsvgTI_3Ia9t0z7AM7-3">
          <mxGeometry x="65" y="210" width="150" height="30" as="geometry" />
        </mxCell>
        <mxCell id="31lsvgTI_3Ia9t0z7AM7-7" value="Raw Data Storage" style="text;html=1;strokeColor=none;fillColor=none;align=center;verticalAlign=middle;whiteSpace=wrap;rounded=0;fontSize=12;fontColor=#FFFFFF;" vertex="1" parent="31lsvgTI_3Ia9t0z7AM7-3">
          <mxGeometry x="65" y="235" width="150" height="20" as="geometry" />
        </mxCell>
        <mxCell id="31lsvgTI_3Ia9t0z7AM7-8" value="📄 JSON Transactions" style="text;html=1;strokeColor=none;fillColor=#FFFFFF;align=center;verticalAlign=middle;whiteSpace=wrap;rounded=1;fontSize=13;fontStyle=1;fontColor=#FF9900;arcSize=15;" vertex="1" parent="31lsvgTI_3Ia9t0z7AM7-3">
          <mxGeometry x="55" y="260" width="170" height="30" as="geometry" />
        </mxCell>
        <mxCell id="31lsvgTI_3Ia9t0z7AM7-9" value="" style="edgeStyle=orthogonalEdgeStyle;rounded=1;orthogonalLoop=1;jettySize=auto;html=1;strokeWidth=4;strokeColor=#FF6B6B;fillColor=#FF6B6B;shadow=1;startArrow=none;startFill=0;endArrow=block;endFill=1;curved=1;" edge="1" parent="31lsvgTI_3Ia9t0z7AM7-3" source="31lsvgTI_3Ia9t0z7AM7-4" target="31lsvgTI_3Ia9t0z7AM7-11">
          <mxGeometry relative="1" as="geometry" />
        </mxCell>
        <mxCell id="31lsvgTI_3Ia9t0z7AM7-10" value="⚡ Event Trigger&lt;br&gt;(Object Created)" style="edgeLabel;html=1;align=center;verticalAlign=middle;resizable=0;points=[];fontSize=13;fontStyle=1;fillColor=#FFE5E5;strokeColor=#FF6B6B;rounded=1;labelBackgroundColor=none;backgroundColor=#FFE5E5;strokeWidth=2;" vertex="1" connectable="0" parent="31lsvgTI_3Ia9t0z7AM7-9">
          <mxGeometry x="-0.15" y="2" relative="1" as="geometry">
            <mxPoint x="10" y="-10" as="offset" />
          </mxGeometry>
        </mxCell>
        <mxCell id="31lsvgTI_3Ia9t0z7AM7-11" value="" style="rounded=1;whiteSpace=wrap;html=1;fillColor=#FF9900;strokeColor=#CC7A00;strokeWidth=3;shadow=1;fontSize=14;arcSize=10;" vertex="1" parent="31lsvgTI_3Ia9t0z7AM7-3">
          <mxGeometry x="320" y="100" width="200" height="200" as="geometry" />
        </mxCell>
        <mxCell id="31lsvgTI_3Ia9t0z7AM7-12" value="λ" style="text;html=1;strokeColor=none;fillColor=none;align=center;verticalAlign=middle;whiteSpace=wrap;rounded=0;fontSize=90;fontStyle=1;fontColor=#FFFFFF;" vertex="1" parent="31lsvgTI_3Ia9t0z7AM7-3">
          <mxGeometry x="365" y="115" width="110" height="80" as="geometry" />
        </mxCell>
        <mxCell id="31lsvgTI_3Ia9t0z7AM7-13" value="AWS Lambda" style="text;html=1;strokeColor=none;fillColor=none;align=center;verticalAlign=middle;whiteSpace=wrap;rounded=0;fontSize=16;fontStyle=1;fontColor=#FFFFFF;" vertex="1" parent="31lsvgTI_3Ia9t0z7AM7-3">
          <mxGeometry x="345" y="205" width="150" height="30" as="geometry" />
        </mxCell>
        <mxCell id="31lsvgTI_3Ia9t0z7AM7-14" value="Transform Function" style="text;html=1;strokeColor=none;fillColor=none;align=center;verticalAlign=middle;whiteSpace=wrap;rounded=0;fontSize=12;fontColor=#FFFFFF;" vertex="1" parent="31lsvgTI_3Ia9t0z7AM7-3">
          <mxGeometry x="345" y="230" width="150" height="20" as="geometry" />
        </mxCell>
        <mxCell id="31lsvgTI_3Ia9t0z7AM7-15" value="🔄 Flatten JSON Data" style="text;html=1;strokeColor=none;fillColor=#FFFFFF;align=center;verticalAlign=middle;whiteSpace=wrap;rounded=1;fontSize=13;fontStyle=1;fontColor=#FF9900;arcSize=15;" vertex="1" parent="31lsvgTI_3Ia9t0z7AM7-3">
          <mxGeometry x="335" y="260" width="170" height="30" as="geometry" />
        </mxCell>
        <mxCell id="31lsvgTI_3Ia9t0z7AM7-16" value="" style="edgeStyle=orthogonalEdgeStyle;rounded=1;orthogonalLoop=1;jettySize=auto;html=1;strokeWidth=4;strokeColor=#4CAF50;fillColor=#4CAF50;shadow=1;startArrow=none;startFill=0;endArrow=block;endFill=1;curved=1;" edge="1" parent="31lsvgTI_3Ia9t0z7AM7-3" source="31lsvgTI_3Ia9t0z7AM7-11" target="31lsvgTI_3Ia9t0z7AM7-18">
          <mxGeometry relative="1" as="geometry" />
        </mxCell>
        <mxCell id="31lsvgTI_3Ia9t0z7AM7-17" value="💾 Write Processed Data" style="edgeLabel;html=1;align=center;verticalAlign=middle;resizable=0;points=[];fontSize=13;fontStyle=1;fillColor=#E8F5E9;strokeColor=#4CAF50;rounded=1;labelBackgroundColor=none;backgroundColor=#E8F5E9;strokeWidth=2;" vertex="1" connectable="0" parent="31lsvgTI_3Ia9t0z7AM7-16">
          <mxGeometry x="-0.15" y="2" relative="1" as="geometry">
            <mxPoint x="10" y="-10" as="offset" />
          </mxGeometry>
        </mxCell>
        <mxCell id="31lsvgTI_3Ia9t0z7AM7-18" value="" style="rounded=1;whiteSpace=wrap;html=1;fillColor=#146EB4;strokeColor=#0E4B8C;strokeWidth=3;shadow=1;fontSize=14;arcSize=10;" vertex="1" parent="31lsvgTI_3Ia9t0z7AM7-3">
          <mxGeometry x="600" y="100" width="200" height="200" as="geometry" />
        </mxCell>
        <mxCell id="31lsvgTI_3Ia9t0z7AM7-19" value="🪣" style="text;html=1;strokeColor=none;fillColor=none;align=center;verticalAlign=middle;whiteSpace=wrap;rounded=0;fontSize=72;" vertex="1" parent="31lsvgTI_3Ia9t0z7AM7-3">
          <mxGeometry x="645" y="120" width="110" height="80" as="geometry" />
        </mxCell>
        <mxCell id="31lsvgTI_3Ia9t0z7AM7-20" value="Amazon S3" style="text;html=1;strokeColor=none;fillColor=none;align=center;verticalAlign=middle;whiteSpace=wrap;rounded=0;fontSize=16;fontStyle=1;fontColor=#FFFFFF;" vertex="1" parent="31lsvgTI_3Ia9t0z7AM7-3">
          <mxGeometry x="625" y="210" width="150" height="30" as="geometry" />
        </mxCell>
        <mxCell id="31lsvgTI_3Ia9t0z7AM7-21" value="Processed Data" style="text;html=1;strokeColor=none;fillColor=none;align=center;verticalAlign=middle;whiteSpace=wrap;rounded=0;fontSize=12;fontColor=#FFFFFF;" vertex="1" parent="31lsvgTI_3Ia9t0z7AM7-3">
          <mxGeometry x="625" y="235" width="150" height="20" as="geometry" />
        </mxCell>
        <mxCell id="31lsvgTI_3Ia9t0z7AM7-22" value="📊 PARQUET Format" style="text;html=1;strokeColor=none;fillColor=#FFFFFF;align=center;verticalAlign=middle;whiteSpace=wrap;rounded=1;fontSize=13;fontStyle=1;fontColor=#146EB4;arcSize=15;" vertex="1" parent="31lsvgTI_3Ia9t0z7AM7-3">
          <mxGeometry x="615" y="260" width="170" height="30" as="geometry" />
        </mxCell>
        <mxCell id="31lsvgTI_3Ia9t0z7AM7-23" value="" style="edgeStyle=orthogonalEdgeStyle;rounded=1;orthogonalLoop=1;jettySize=auto;html=1;strokeWidth=4;strokeColor=#9C27B0;fillColor=#9C27B0;shadow=1;startArrow=none;startFill=0;endArrow=block;endFill=1;curved=1;" edge="1" parent="31lsvgTI_3Ia9t0z7AM7-3" source="31lsvgTI_3Ia9t0z7AM7-18" target="31lsvgTI_3Ia9t0z7AM7-25">
          <mxGeometry relative="1" as="geometry" />
        </mxCell>
        <mxCell id="31lsvgTI_3Ia9t0z7AM7-24" value="⚡ Event Trigger&lt;br&gt;(Catalog Data)" style="edgeLabel;html=1;align=center;verticalAlign=middle;resizable=0;points=[];fontSize=13;fontStyle=1;fillColor=#F3E5F5;strokeColor=#9C27B0;rounded=1;labelBackgroundColor=none;backgroundColor=#F3E5F5;strokeWidth=2;" vertex="1" connectable="0" parent="31lsvgTI_3Ia9t0z7AM7-23">
          <mxGeometry x="-0.15" y="2" relative="1" as="geometry">
            <mxPoint x="10" y="-10" as="offset" />
          </mxGeometry>
        </mxCell>
        <mxCell id="31lsvgTI_3Ia9t0z7AM7-25" value="" style="rounded=1;whiteSpace=wrap;html=1;fillColor=#8C4FFF;strokeColor=#6A1B9A;strokeWidth=3;shadow=1;fontSize=14;arcSize=10;" vertex="1" parent="31lsvgTI_3Ia9t0z7AM7-3">
          <mxGeometry x="600" y="360" width="200" height="200" as="geometry" />
        </mxCell>
        <mxCell id="31lsvgTI_3Ia9t0z7AM7-26" value="🕷️" style="text;html=1;strokeColor=none;fillColor=none;align=center;verticalAlign=middle;whiteSpace=wrap;rounded=0;fontSize=72;" vertex="1" parent="31lsvgTI_3Ia9t0z7AM7-3">
          <mxGeometry x="645" y="380" width="110" height="80" as="geometry" />
        </mxCell>
        <mxCell id="31lsvgTI_3Ia9t0z7AM7-27" value="AWS Glue Crawler" style="text;html=1;strokeColor=none;fillColor=none;align=center;verticalAlign=middle;whiteSpace=wrap;rounded=0;fontSize=16;fontStyle=1;fontColor=#FFFFFF;" vertex="1" parent="31lsvgTI_3Ia9t0z7AM7-3">
          <mxGeometry x="625" y="470" width="150" height="30" as="geometry" />
        </mxCell>
        <mxCell id="31lsvgTI_3Ia9t0z7AM7-28" value="Schema Discovery" style="text;html=1;strokeColor=none;fillColor=none;align=center;verticalAlign=middle;whiteSpace=wrap;rounded=0;fontSize=12;fontColor=#FFFFFF;" vertex="1" parent="31lsvgTI_3Ia9t0z7AM7-3">
          <mxGeometry x="625" y="495" width="150" height="20" as="geometry" />
        </mxCell>
        <mxCell id="31lsvgTI_3Ia9t0z7AM7-29" value="📚 Data Catalogue" style="text;html=1;strokeColor=none;fillColor=#FFFFFF;align=center;verticalAlign=middle;whiteSpace=wrap;rounded=1;fontSize=13;fontStyle=1;fontColor=#8C4FFF;arcSize=15;" vertex="1" parent="31lsvgTI_3Ia9t0z7AM7-3">
          <mxGeometry x="615" y="520" width="170" height="30" as="geometry" />
        </mxCell>
        <mxCell id="31lsvgTI_3Ia9t0z7AM7-30" value="" style="edgeStyle=orthogonalEdgeStyle;rounded=1;orthogonalLoop=1;jettySize=auto;html=1;strokeWidth=4;strokeColor=#FF6B35;fillColor=#FF6B35;shadow=1;startArrow=none;startFill=0;endArrow=block;endFill=1;curved=1;" edge="1" parent="31lsvgTI_3Ia9t0z7AM7-3" source="31lsvgTI_3Ia9t0z7AM7-25" target="31lsvgTI_3Ia9t0z7AM7-32">
          <mxGeometry relative="1" as="geometry" />
        </mxCell>
        <mxCell id="31lsvgTI_3Ia9t0z7AM7-31" value="🔗 Schema Available&lt;br&gt;(Query Ready)" style="edgeLabel;html=1;align=center;verticalAlign=middle;resizable=0;points=[];fontSize=13;fontStyle=1;fillColor=#FFF3E0;strokeColor=#FF6B35;rounded=1;labelBackgroundColor=none;backgroundColor=#FFF3E0;strokeWidth=2;" vertex="1" connectable="0" parent="31lsvgTI_3Ia9t0z7AM7-30">
          <mxGeometry x="-0.15" y="2" relative="1" as="geometry">
            <mxPoint x="10" y="-10" as="offset" />
          </mxGeometry>
        </mxCell>
        <mxCell id="31lsvgTI_3Ia9t0z7AM7-32" value="" style="rounded=1;whiteSpace=wrap;html=1;fillColor=#232F3E;strokeColor=#146EB4;strokeWidth=3;shadow=1;fontSize=14;arcSize=10;" vertex="1" parent="31lsvgTI_3Ia9t0z7AM7-3">
          <mxGeometry x="980" y="360" width="220" height="200" as="geometry" />
        </mxCell>
        <mxCell id="31lsvgTI_3Ia9t0z7AM7-33" value="🔍" style="text;html=1;strokeColor=none;fillColor=none;align=center;verticalAlign=middle;whiteSpace=wrap;rounded=0;fontSize=72;" vertex="1" parent="31lsvgTI_3Ia9t0z7AM7-3">
          <mxGeometry x="1035" y="380" width="110" height="80" as="geometry" />
        </mxCell>
        <mxCell id="31lsvgTI_3Ia9t0z7AM7-34" value="Amazon Athena" style="text;html=1;strokeColor=none;fillColor=none;align=center;verticalAlign=middle;whiteSpace=wrap;rounded=0;fontSize=16;fontStyle=1;fontColor=#FFFFFF;" vertex="1" parent="31lsvgTI_3Ia9t0z7AM7-3">
          <mxGeometry x="1015" y="470" width="170" height="30" as="geometry" />
        </mxCell>
        <mxCell id="31lsvgTI_3Ia9t0z7AM7-35" value="Serverless Query Service" style="text;html=1;strokeColor=none;fillColor=none;align=center;verticalAlign=middle;whiteSpace=wrap;rounded=0;fontSize=12;fontColor=#FFFFFF;" vertex="1" parent="31lsvgTI_3Ia9t0z7AM7-3">
          <mxGeometry x="1015" y="495" width="170" height="20" as="geometry" />
        </mxCell>
        <mxCell id="31lsvgTI_3Ia9t0z7AM7-36" value="📊 SQL Data Analysis" style="text;html=1;strokeColor=none;fillColor=#FFFFFF;align=center;verticalAlign=middle;whiteSpace=wrap;rounded=1;fontSize=13;fontStyle=1;fontColor=#146EB4;arcSize=15;" vertex="1" parent="31lsvgTI_3Ia9t0z7AM7-3">
          <mxGeometry x="1005" y="520" width="180" height="30" as="geometry" />
        </mxCell>
        <mxCell id="31lsvgTI_3Ia9t0z7AM7-37" value="🔄 Complete Event-Driven Flow →" style="text;html=1;strokeColor=#FF6B35;fillColor=#FFF3E0;align=center;verticalAlign=middle;whiteSpace=wrap;rounded=1;fontSize=14;fontStyle=1;fontColor=#FF6B35;arcSize=20;strokeWidth=2;" vertex="1" parent="31lsvgTI_3Ia9t0z7AM7-3">
          <mxGeometry x="40" y="40" width="280" height="35" as="geometry" />
        </mxCell>
      </root>
    </mxGraphModel>
  </diagram>
</mxfile>
